%TF.GenerationSoftware,KiCad,Pcbnew,8.0.1*%
%TF.CreationDate,2024-03-23T09:32:29-06:00*%
%TF.ProjectId,underglow3,756e6465-7267-46c6-9f77-332e6b696361,rev?*%
%TF.SameCoordinates,Original*%
%TF.FileFunction,Other,Comment*%
%FSLAX46Y46*%
G04 Gerber Fmt 4.6, Leading zero omitted, Abs format (unit mm)*
G04 Created by KiCad (PCBNEW 8.0.1) date 2024-03-23 09:32:29*
%MOMM*%
%LPD*%
G01*
G04 APERTURE LIST*
%ADD10C,0.150000*%
%ADD11C,0.070000*%
G04 APERTURE END LIST*
D10*
X21380952Y445181D02*
X21952380Y445181D01*
X21666666Y-554819D02*
X21666666Y445181D01*
X22857142Y-554819D02*
X22523809Y-78628D01*
X22285714Y-554819D02*
X22285714Y445181D01*
X22285714Y445181D02*
X22666666Y445181D01*
X22666666Y445181D02*
X22761904Y397562D01*
X22761904Y397562D02*
X22809523Y349943D01*
X22809523Y349943D02*
X22857142Y254705D01*
X22857142Y254705D02*
X22857142Y111848D01*
X22857142Y111848D02*
X22809523Y16610D01*
X22809523Y16610D02*
X22761904Y-31009D01*
X22761904Y-31009D02*
X22666666Y-78628D01*
X22666666Y-78628D02*
X22285714Y-78628D01*
X23238095Y-269104D02*
X23714285Y-269104D01*
X23142857Y-554819D02*
X23476190Y445181D01*
X23476190Y445181D02*
X23809523Y-554819D01*
X24714285Y-459580D02*
X24666666Y-507200D01*
X24666666Y-507200D02*
X24523809Y-554819D01*
X24523809Y-554819D02*
X24428571Y-554819D01*
X24428571Y-554819D02*
X24285714Y-507200D01*
X24285714Y-507200D02*
X24190476Y-411961D01*
X24190476Y-411961D02*
X24142857Y-316723D01*
X24142857Y-316723D02*
X24095238Y-126247D01*
X24095238Y-126247D02*
X24095238Y16610D01*
X24095238Y16610D02*
X24142857Y207086D01*
X24142857Y207086D02*
X24190476Y302324D01*
X24190476Y302324D02*
X24285714Y397562D01*
X24285714Y397562D02*
X24428571Y445181D01*
X24428571Y445181D02*
X24523809Y445181D01*
X24523809Y445181D02*
X24666666Y397562D01*
X24666666Y397562D02*
X24714285Y349943D01*
X25142857Y-31009D02*
X25476190Y-31009D01*
X25619047Y-554819D02*
X25142857Y-554819D01*
X25142857Y-554819D02*
X25142857Y445181D01*
X25142857Y445181D02*
X25619047Y445181D01*
X27000000Y445181D02*
X27190476Y445181D01*
X27190476Y445181D02*
X27285714Y397562D01*
X27285714Y397562D02*
X27380952Y302324D01*
X27380952Y302324D02*
X27428571Y111848D01*
X27428571Y111848D02*
X27428571Y-221485D01*
X27428571Y-221485D02*
X27380952Y-411961D01*
X27380952Y-411961D02*
X27285714Y-507200D01*
X27285714Y-507200D02*
X27190476Y-554819D01*
X27190476Y-554819D02*
X27000000Y-554819D01*
X27000000Y-554819D02*
X26904762Y-507200D01*
X26904762Y-507200D02*
X26809524Y-411961D01*
X26809524Y-411961D02*
X26761905Y-221485D01*
X26761905Y-221485D02*
X26761905Y111848D01*
X26761905Y111848D02*
X26809524Y302324D01*
X26809524Y302324D02*
X26904762Y397562D01*
X26904762Y397562D02*
X27000000Y445181D01*
X27714286Y445181D02*
X28047619Y-554819D01*
X28047619Y-554819D02*
X28380952Y445181D01*
X28714286Y-31009D02*
X29047619Y-31009D01*
X29190476Y-554819D02*
X28714286Y-554819D01*
X28714286Y-554819D02*
X28714286Y445181D01*
X28714286Y445181D02*
X29190476Y445181D01*
X30190476Y-554819D02*
X29857143Y-78628D01*
X29619048Y-554819D02*
X29619048Y445181D01*
X29619048Y445181D02*
X30000000Y445181D01*
X30000000Y445181D02*
X30095238Y397562D01*
X30095238Y397562D02*
X30142857Y349943D01*
X30142857Y349943D02*
X30190476Y254705D01*
X30190476Y254705D02*
X30190476Y111848D01*
X30190476Y111848D02*
X30142857Y16610D01*
X30142857Y16610D02*
X30095238Y-31009D01*
X30095238Y-31009D02*
X30000000Y-78628D01*
X30000000Y-78628D02*
X29619048Y-78628D01*
X31380953Y-31009D02*
X31714286Y-31009D01*
X31857143Y-554819D02*
X31380953Y-554819D01*
X31380953Y-554819D02*
X31380953Y445181D01*
X31380953Y445181D02*
X31857143Y445181D01*
X32857143Y-459580D02*
X32809524Y-507200D01*
X32809524Y-507200D02*
X32666667Y-554819D01*
X32666667Y-554819D02*
X32571429Y-554819D01*
X32571429Y-554819D02*
X32428572Y-507200D01*
X32428572Y-507200D02*
X32333334Y-411961D01*
X32333334Y-411961D02*
X32285715Y-316723D01*
X32285715Y-316723D02*
X32238096Y-126247D01*
X32238096Y-126247D02*
X32238096Y16610D01*
X32238096Y16610D02*
X32285715Y207086D01*
X32285715Y207086D02*
X32333334Y302324D01*
X32333334Y302324D02*
X32428572Y397562D01*
X32428572Y397562D02*
X32571429Y445181D01*
X32571429Y445181D02*
X32666667Y445181D01*
X32666667Y445181D02*
X32809524Y397562D01*
X32809524Y397562D02*
X32857143Y349943D01*
X33476191Y445181D02*
X33666667Y445181D01*
X33666667Y445181D02*
X33761905Y397562D01*
X33761905Y397562D02*
X33857143Y302324D01*
X33857143Y302324D02*
X33904762Y111848D01*
X33904762Y111848D02*
X33904762Y-221485D01*
X33904762Y-221485D02*
X33857143Y-411961D01*
X33857143Y-411961D02*
X33761905Y-507200D01*
X33761905Y-507200D02*
X33666667Y-554819D01*
X33666667Y-554819D02*
X33476191Y-554819D01*
X33476191Y-554819D02*
X33380953Y-507200D01*
X33380953Y-507200D02*
X33285715Y-411961D01*
X33285715Y-411961D02*
X33238096Y-221485D01*
X33238096Y-221485D02*
X33238096Y111848D01*
X33238096Y111848D02*
X33285715Y302324D01*
X33285715Y302324D02*
X33380953Y397562D01*
X33380953Y397562D02*
X33476191Y445181D01*
X34857143Y-554819D02*
X34285715Y-554819D01*
X34571429Y-554819D02*
X34571429Y445181D01*
X34571429Y445181D02*
X34476191Y302324D01*
X34476191Y302324D02*
X34380953Y207086D01*
X34380953Y207086D02*
X34285715Y159467D01*
X35285715Y-459580D02*
X35333334Y-507200D01*
X35333334Y-507200D02*
X35285715Y-554819D01*
X35285715Y-554819D02*
X35238096Y-507200D01*
X35238096Y-507200D02*
X35285715Y-459580D01*
X35285715Y-459580D02*
X35285715Y-554819D01*
X35761905Y445181D02*
X35761905Y-364342D01*
X35761905Y-364342D02*
X35809524Y-459580D01*
X35809524Y-459580D02*
X35857143Y-507200D01*
X35857143Y-507200D02*
X35952381Y-554819D01*
X35952381Y-554819D02*
X36142857Y-554819D01*
X36142857Y-554819D02*
X36238095Y-507200D01*
X36238095Y-507200D02*
X36285714Y-459580D01*
X36285714Y-459580D02*
X36333333Y-364342D01*
X36333333Y-364342D02*
X36333333Y445181D01*
X36761905Y-507200D02*
X36904762Y-554819D01*
X36904762Y-554819D02*
X37142857Y-554819D01*
X37142857Y-554819D02*
X37238095Y-507200D01*
X37238095Y-507200D02*
X37285714Y-459580D01*
X37285714Y-459580D02*
X37333333Y-364342D01*
X37333333Y-364342D02*
X37333333Y-269104D01*
X37333333Y-269104D02*
X37285714Y-173866D01*
X37285714Y-173866D02*
X37238095Y-126247D01*
X37238095Y-126247D02*
X37142857Y-78628D01*
X37142857Y-78628D02*
X36952381Y-31009D01*
X36952381Y-31009D02*
X36857143Y16610D01*
X36857143Y16610D02*
X36809524Y64229D01*
X36809524Y64229D02*
X36761905Y159467D01*
X36761905Y159467D02*
X36761905Y254705D01*
X36761905Y254705D02*
X36809524Y349943D01*
X36809524Y349943D02*
X36857143Y397562D01*
X36857143Y397562D02*
X36952381Y445181D01*
X36952381Y445181D02*
X37190476Y445181D01*
X37190476Y445181D02*
X37333333Y397562D01*
X37761905Y-31009D02*
X38095238Y-31009D01*
X38238095Y-554819D02*
X37761905Y-554819D01*
X37761905Y-554819D02*
X37761905Y445181D01*
X37761905Y445181D02*
X38238095Y445181D01*
X39238095Y-554819D02*
X38904762Y-78628D01*
X38666667Y-554819D02*
X38666667Y445181D01*
X38666667Y445181D02*
X39047619Y445181D01*
X39047619Y445181D02*
X39142857Y397562D01*
X39142857Y397562D02*
X39190476Y349943D01*
X39190476Y349943D02*
X39238095Y254705D01*
X39238095Y254705D02*
X39238095Y111848D01*
X39238095Y111848D02*
X39190476Y16610D01*
X39190476Y16610D02*
X39142857Y-31009D01*
X39142857Y-31009D02*
X39047619Y-78628D01*
X39047619Y-78628D02*
X38666667Y-78628D01*
X40333334Y445181D02*
X40571429Y-554819D01*
X40571429Y-554819D02*
X40761905Y159467D01*
X40761905Y159467D02*
X40952381Y-554819D01*
X40952381Y-554819D02*
X41190477Y445181D01*
X41571429Y-554819D02*
X41571429Y445181D01*
X41904762Y445181D02*
X42476190Y445181D01*
X42190476Y-554819D02*
X42190476Y445181D01*
X42809524Y-554819D02*
X42809524Y445181D01*
X42809524Y-31009D02*
X43380952Y-31009D01*
X43380952Y-554819D02*
X43380952Y445181D01*
X44619048Y-31009D02*
X44952381Y-31009D01*
X45095238Y-554819D02*
X44619048Y-554819D01*
X44619048Y-554819D02*
X44619048Y445181D01*
X44619048Y445181D02*
X45095238Y445181D01*
X45523810Y-554819D02*
X45523810Y445181D01*
X45523810Y445181D02*
X45761905Y445181D01*
X45761905Y445181D02*
X45904762Y397562D01*
X45904762Y397562D02*
X46000000Y302324D01*
X46000000Y302324D02*
X46047619Y207086D01*
X46047619Y207086D02*
X46095238Y16610D01*
X46095238Y16610D02*
X46095238Y-126247D01*
X46095238Y-126247D02*
X46047619Y-316723D01*
X46047619Y-316723D02*
X46000000Y-411961D01*
X46000000Y-411961D02*
X45904762Y-507200D01*
X45904762Y-507200D02*
X45761905Y-554819D01*
X45761905Y-554819D02*
X45523810Y-554819D01*
X47047619Y397562D02*
X46952381Y445181D01*
X46952381Y445181D02*
X46809524Y445181D01*
X46809524Y445181D02*
X46666667Y397562D01*
X46666667Y397562D02*
X46571429Y302324D01*
X46571429Y302324D02*
X46523810Y207086D01*
X46523810Y207086D02*
X46476191Y16610D01*
X46476191Y16610D02*
X46476191Y-126247D01*
X46476191Y-126247D02*
X46523810Y-316723D01*
X46523810Y-316723D02*
X46571429Y-411961D01*
X46571429Y-411961D02*
X46666667Y-507200D01*
X46666667Y-507200D02*
X46809524Y-554819D01*
X46809524Y-554819D02*
X46904762Y-554819D01*
X46904762Y-554819D02*
X47047619Y-507200D01*
X47047619Y-507200D02*
X47095238Y-459580D01*
X47095238Y-459580D02*
X47095238Y-126247D01*
X47095238Y-126247D02*
X46904762Y-126247D01*
X47523810Y-31009D02*
X47857143Y-31009D01*
X48000000Y-554819D02*
X47523810Y-554819D01*
X47523810Y-554819D02*
X47523810Y445181D01*
X47523810Y445181D02*
X48000000Y445181D01*
X49761905Y-459580D02*
X49714286Y-507200D01*
X49714286Y-507200D02*
X49571429Y-554819D01*
X49571429Y-554819D02*
X49476191Y-554819D01*
X49476191Y-554819D02*
X49333334Y-507200D01*
X49333334Y-507200D02*
X49238096Y-411961D01*
X49238096Y-411961D02*
X49190477Y-316723D01*
X49190477Y-316723D02*
X49142858Y-126247D01*
X49142858Y-126247D02*
X49142858Y16610D01*
X49142858Y16610D02*
X49190477Y207086D01*
X49190477Y207086D02*
X49238096Y302324D01*
X49238096Y302324D02*
X49333334Y397562D01*
X49333334Y397562D02*
X49476191Y445181D01*
X49476191Y445181D02*
X49571429Y445181D01*
X49571429Y445181D02*
X49714286Y397562D01*
X49714286Y397562D02*
X49761905Y349943D01*
X50190477Y445181D02*
X50190477Y-364342D01*
X50190477Y-364342D02*
X50238096Y-459580D01*
X50238096Y-459580D02*
X50285715Y-507200D01*
X50285715Y-507200D02*
X50380953Y-554819D01*
X50380953Y-554819D02*
X50571429Y-554819D01*
X50571429Y-554819D02*
X50666667Y-507200D01*
X50666667Y-507200D02*
X50714286Y-459580D01*
X50714286Y-459580D02*
X50761905Y-364342D01*
X50761905Y-364342D02*
X50761905Y445181D01*
X51095239Y445181D02*
X51666667Y445181D01*
X51380953Y-554819D02*
X51380953Y445181D01*
X51952382Y-507200D02*
X52095239Y-554819D01*
X52095239Y-554819D02*
X52333334Y-554819D01*
X52333334Y-554819D02*
X52428572Y-507200D01*
X52428572Y-507200D02*
X52476191Y-459580D01*
X52476191Y-459580D02*
X52523810Y-364342D01*
X52523810Y-364342D02*
X52523810Y-269104D01*
X52523810Y-269104D02*
X52476191Y-173866D01*
X52476191Y-173866D02*
X52428572Y-126247D01*
X52428572Y-126247D02*
X52333334Y-78628D01*
X52333334Y-78628D02*
X52142858Y-31009D01*
X52142858Y-31009D02*
X52047620Y16610D01*
X52047620Y16610D02*
X52000001Y64229D01*
X52000001Y64229D02*
X51952382Y159467D01*
X51952382Y159467D02*
X51952382Y254705D01*
X51952382Y254705D02*
X52000001Y349943D01*
X52000001Y349943D02*
X52047620Y397562D01*
X52047620Y397562D02*
X52142858Y445181D01*
X52142858Y445181D02*
X52380953Y445181D01*
X52380953Y445181D02*
X52523810Y397562D01*
D11*
X51221699Y34053593D02*
X51221699Y34453593D01*
X51450270Y34053593D02*
X51278841Y34282164D01*
X51450270Y34453593D02*
X51221699Y34225021D01*
X51621699Y34263117D02*
X51755032Y34263117D01*
X51812175Y34053593D02*
X51621699Y34053593D01*
X51621699Y34053593D02*
X51621699Y34453593D01*
X51621699Y34453593D02*
X51812175Y34453593D01*
X51983604Y34263117D02*
X52116937Y34263117D01*
X52174080Y34053593D02*
X51983604Y34053593D01*
X51983604Y34053593D02*
X51983604Y34453593D01*
X51983604Y34453593D02*
X52174080Y34453593D01*
X52345509Y34053593D02*
X52345509Y34453593D01*
X52345509Y34453593D02*
X52497890Y34453593D01*
X52497890Y34453593D02*
X52535985Y34434545D01*
X52535985Y34434545D02*
X52555032Y34415498D01*
X52555032Y34415498D02*
X52574080Y34377402D01*
X52574080Y34377402D02*
X52574080Y34320260D01*
X52574080Y34320260D02*
X52555032Y34282164D01*
X52555032Y34282164D02*
X52535985Y34263117D01*
X52535985Y34263117D02*
X52497890Y34244069D01*
X52497890Y34244069D02*
X52345509Y34244069D01*
X52821699Y34453593D02*
X52897890Y34453593D01*
X52897890Y34453593D02*
X52935985Y34434545D01*
X52935985Y34434545D02*
X52974080Y34396450D01*
X52974080Y34396450D02*
X52993128Y34320260D01*
X52993128Y34320260D02*
X52993128Y34186926D01*
X52993128Y34186926D02*
X52974080Y34110736D01*
X52974080Y34110736D02*
X52935985Y34072640D01*
X52935985Y34072640D02*
X52897890Y34053593D01*
X52897890Y34053593D02*
X52821699Y34053593D01*
X52821699Y34053593D02*
X52783604Y34072640D01*
X52783604Y34072640D02*
X52745509Y34110736D01*
X52745509Y34110736D02*
X52726461Y34186926D01*
X52726461Y34186926D02*
X52726461Y34320260D01*
X52726461Y34320260D02*
X52745509Y34396450D01*
X52745509Y34396450D02*
X52783604Y34434545D01*
X52783604Y34434545D02*
X52821699Y34453593D01*
X53164557Y34453593D02*
X53164557Y34129783D01*
X53164557Y34129783D02*
X53183604Y34091688D01*
X53183604Y34091688D02*
X53202652Y34072640D01*
X53202652Y34072640D02*
X53240747Y34053593D01*
X53240747Y34053593D02*
X53316938Y34053593D01*
X53316938Y34053593D02*
X53355033Y34072640D01*
X53355033Y34072640D02*
X53374080Y34091688D01*
X53374080Y34091688D02*
X53393128Y34129783D01*
X53393128Y34129783D02*
X53393128Y34453593D01*
X53526462Y34453593D02*
X53755033Y34453593D01*
X53640747Y34053593D02*
X53640747Y34453593D01*
M02*
