M48
; DRILL file {KiCad 8.0.1} date 2024-03-23T09:32:29-0600
; FORMAT={-:-/ absolute / inch / decimal}
; #@! TF.CreationDate,2024-03-23T09:32:29-06:00
; #@! TF.GenerationSoftware,Kicad,Pcbnew,8.0.1
; #@! TF.FileFunction,Plated,1,4,PTH
FMAT,2
INCH
; #@! TA.AperFunction,Plated,PTH,ViaDrill
T1C0.0118
; #@! TA.AperFunction,Plated,PTH,ViaDrill
T2C0.0157
; #@! TA.AperFunction,Plated,PTH,ViaDrill
T3C0.0197
; #@! TA.AperFunction,Plated,PTH,ComponentDrill
T4C0.0512
%
G90
G05
T1
X0.0079Y0.6299
X0.0157Y0.7795
X0.0787Y0.6299
X0.1019Y3.0472
X0.1496Y0.8189
X0.1496Y0.6535
X0.1969Y0.8189
X0.2441Y0.8189
X0.2441Y0.6535
X0.2835Y3.6693
X0.3858Y0.7795
X0.4488Y3.6693
X0.4567Y0.9316
X0.4646Y1.7
X0.4646Y1.6142
X0.561Y1.0497
X0.5847Y0.9316
X0.6614Y1.8425
X0.6614Y1.7874
X0.6614Y1.7323
X0.6614Y1.576
X0.6614Y1.5295
X0.6614Y1.4791
X0.6772Y1.0945
X0.685Y2.874
X0.685Y2.7835
X0.685Y2.748
X0.6929Y3.4409
X0.6949Y0.9867
X0.7008Y1.6811
X0.7087Y3.6693
X0.7874Y2.748
X0.7874Y2.7008
X0.7874Y1.0551
X0.8661Y1.6142
X0.8898Y0.9843
X0.9764Y1.6412
X0.9764Y1.4011
X1.0039Y3.3543
X1.0039Y3.2598
X1.0039Y0.9449
X1.0315Y1.7835
X1.0394Y1.6412
X1.0394Y1.4011
X1.0748Y1.7835
X1.0748Y1.7416
X1.1339Y1.6063
X1.1409Y2.315
X1.1417Y2.2283
X1.1732Y3.5984
X1.1732Y2.4724
X1.1732Y2.4016
X1.1811Y3.0315
X1.1811Y2.9724
X1.1811Y2.9134
X1.1811Y2.8543
X1.189Y1.8425
X1.2205Y1.6063
X1.2283Y3.4606
X1.2283Y2.8346
X1.2283Y2.7953
X1.2283Y2.7559
X1.2283Y2.7165
X1.2283Y2.6772
X1.2283Y2.6378
X1.2402Y3.0315
X1.2402Y1.6654
X1.2402Y0.9449
X1.2441Y2.5354
X1.2502Y1.3235
X1.252Y1.5626
X1.2835Y1.2913
X1.2992Y3.0315
X1.2992Y2.6378
X1.3071Y2.3701
X1.3465Y2.5325
X1.3465Y2.4803
X1.3583Y3.0315
X1.3583Y2.6378
X1.3701Y1.9606
X1.378Y2.8346
X1.378Y1.3937
X1.3858Y2.2205
X1.3858Y1.6063
X1.3858Y1.5591
X1.4016Y1.3228
X1.4134Y1.8819
X1.4134Y1.4646
X1.4173Y3.0315
X1.4173Y2.9724
X1.4173Y2.9134
X1.4173Y2.8543
X1.4173Y2.7953
X1.4409Y2.1811
X1.4488Y1.9291
X1.4488Y1.5591
X1.4528Y2.6309
X1.4724Y3.4606
X1.4764Y2.2205
X1.4764Y0.9449
X1.4793Y2.001
X1.4882Y2.8661
X1.4885Y2.6929
X1.4903Y1.6024
X1.4905Y1.4252
X1.4921Y1.2913
X1.5079Y1.874
X1.5295Y2.5906
X1.5354Y2.9291
X1.5394Y1.2913
X1.5443Y1.5659
X1.5541Y2.6654
X1.5669Y1.9606
X1.5827Y2.9606
X1.5906Y2.5915
X1.5906Y1.4252
X1.5984Y2.1811
X1.6053Y1.5699
X1.6172Y1.7105
X1.622Y2.8976
X1.626Y1.3858
X1.6417Y2.5581
X1.6417Y2.2205
X1.6624Y2.4941
X1.689Y1.3858
X1.6929Y1.6378
X1.7008Y3.4606
X1.7008Y3.2598
X1.7008Y3.0323
X1.7126Y0.9449
X1.7242Y2.5118
X1.7323Y2.1811
X1.7391Y2.8031
X1.7402Y2.9921
X1.7531Y1.9114
X1.7531Y1.7441
X1.7874Y2.9921
X1.8043Y1.5366
X1.8043Y1.4843
X1.811Y2.815
X1.8189Y1.8976
X1.8268Y1.6535
X1.8268Y1.6142
X1.8346Y2.9921
X1.8425Y2.3071
X1.8819Y2.9921
X1.8819Y2.9291
X1.8976Y2.2677
X1.9134Y2.3071
X1.9134Y1.6926
X1.9153Y1.7835
X1.9154Y1.5827
X1.9291Y2.9606
X1.9291Y2.8976
X1.937Y2.2677
X1.9488Y0.9449
X1.9606Y2.6909
X1.9675Y2.8583
X2.0153Y1.4016
X2.0551Y1.5354
X2.1614Y1.4961
X2.1752Y2.8091
X2.1969Y2.7441
X2.2441Y0.9449
X2.2638Y2.5079
X2.2677Y3.4606
X2.2677Y3.2598
X2.2677Y2.7795
X2.2677Y2.7165
X2.2677Y2.6378
X2.2805Y2.5748
X2.3219Y2.7795
X2.3219Y2.628
X2.3228Y2.7165
X2.3228Y2.6732
X2.3228Y1.4961
X2.3279Y2.363
X2.3279Y1.6063
X2.3319Y2.4606
X2.3374Y2.5433
X2.3563Y1.378
X2.3673Y2.4606
X2.3701Y2.5906
X2.3898Y1.6063
X2.4173Y1.4961
X2.4449Y1.6063
X2.4567Y1.4961
X2.5354Y0.7244
X2.6693Y0.7244
X2.685Y1.5669
X2.689Y1.6378
X2.748Y1.9291
X2.748Y1.7874
X2.7559Y2.0079
X2.7717Y1.5118
X2.7717Y1.2756
X2.7953Y1.063
X2.8031Y2.2756
X2.8122Y1.7559
X2.8122Y1.7165
X2.8228Y1.5669
X2.8307Y1.3071
X2.8425Y1.063
X2.8504Y2.0118
X2.8504Y1.9291
X2.8555Y2.1334
X2.8898Y0.7087
T2
X0.1024Y1.0551
X0.1024Y0.9764
X0.2205Y1.0551
X0.2205Y0.9764
X0.4646Y1.5276
X0.6614Y1.378
X0.6614Y1.2992
X0.7795Y1.378
X0.7795Y1.2992
X1.0472Y3.6457
X2.1535Y1.3031
T3
X-0.0236Y2.8031
X-0.0236Y2.7402
X-0.0236Y2.6772
X0.1496Y2.4488
X0.1496Y2.3622
X0.2283Y0.0787
X0.2362Y3.4173
X0.2677Y2.4488
X0.2677Y2.3622
X0.3701Y1.7008
X0.3701Y1.6142
X0.378Y0.0787
X0.3858Y2.4488
X0.3858Y2.3622
X0.4213Y3.2717
X0.4213Y3.187
X0.4252Y3.3563
X0.5197Y2.8425
X0.5197Y2.7874
X0.5512Y3.2717
X0.5512Y3.187
X0.5551Y3.3563
X0.5591Y0.5787
X0.5591Y0.4331
X0.5984Y2.8425
X0.5984Y2.7874
X0.6142Y0.7795
X0.622Y3.063
X0.622Y3.0157
X0.6772Y3.2697
X0.6772Y3.185
X0.6811Y3.3543
X0.7795Y2.5433
X0.7795Y2.4803
X0.8031Y0.7795
X0.8031Y0.7362
X0.9213Y1.4961
X1.0354Y0.7795
X1.0354Y0.7362
X1.2598Y0.7795
X1.2598Y0.7362
X1.2992Y3.6457
X1.3937Y3.5984
X1.5039Y0.7795
X1.5039Y0.7362
X1.7402Y2.4252
X1.7402Y2.3701
X1.7441Y0.7795
X1.7441Y0.7362
X1.7953Y2.4252
X1.7953Y2.3701
X1.9764Y0.7795
X1.9764Y0.7362
X2.072Y2.4252
X2.126Y2.4252
X2.2913Y0.7795
X2.2913Y0.7323
X2.2913Y0.5039
X2.315Y2.0472
X2.315Y1.9724
X2.315Y1.8976
X2.315Y1.3071
X2.315Y1.2047
X2.3937Y2.0472
X2.3937Y1.9724
X2.3937Y1.8976
X2.3937Y1.3071
X2.3937Y1.2047
X2.4016Y0.2362
X2.4016Y0.0394
X2.4646Y2.0472
X2.4646Y1.9724
X2.4646Y1.8976
X2.5669Y1.4961
X2.5669Y1.4409
X2.5984Y0.2362
X2.5984Y0.0394
X2.6772Y3.4173
X2.685Y1.4961
X2.685Y1.4409
X2.7559Y3.1496
X2.7559Y2.9528
X2.7559Y2.7559
X2.7559Y2.5512
X2.7953Y0.2362
X2.7953Y0.0394
X2.937Y1.4409
X2.937Y1.3071
X2.9528Y3.1496
X2.9528Y2.9528
X2.9528Y2.7559
X2.9528Y2.5512
T4
X0.9656Y0.4921
X0.9656Y0.3268
X0.9656Y0.1614
X1.1289Y0.4921
X1.1289Y0.3268
X1.1289Y0.1614
X1.26Y0.4921
X1.26Y0.3268
X1.26Y0.1614
X1.3911Y0.4921
X1.3911Y0.3268
X1.3911Y0.1614
X1.5222Y0.4921
X1.5222Y0.3268
X1.5222Y0.1614
X1.6533Y0.4921
X1.6533Y0.3268
X1.6533Y0.1614
X1.7844Y0.4921
X1.7844Y0.3268
X1.7844Y0.1614
X1.9478Y0.4921
X1.9478Y0.3268
X1.9478Y0.1614
M30
