%TF.GenerationSoftware,KiCad,Pcbnew,8.0.1*%
%TF.CreationDate,2024-03-23T09:32:29-06:00*%
%TF.ProjectId,underglow3,756e6465-7267-46c6-9f77-332e6b696361,rev?*%
%TF.SameCoordinates,Original*%
%TF.FileFunction,Paste,Top*%
%TF.FilePolarity,Positive*%
%FSLAX46Y46*%
G04 Gerber Fmt 4.6, Leading zero omitted, Abs format (unit mm)*
G04 Created by KiCad (PCBNEW 8.0.1) date 2024-03-23 09:32:29*
%MOMM*%
%LPD*%
G01*
G04 APERTURE LIST*
G04 Aperture macros list*
%AMRoundRect*
0 Rectangle with rounded corners*
0 $1 Rounding radius*
0 $2 $3 $4 $5 $6 $7 $8 $9 X,Y pos of 4 corners*
0 Add a 4 corners polygon primitive as box body*
4,1,4,$2,$3,$4,$5,$6,$7,$8,$9,$2,$3,0*
0 Add four circle primitives for the rounded corners*
1,1,$1+$1,$2,$3*
1,1,$1+$1,$4,$5*
1,1,$1+$1,$6,$7*
1,1,$1+$1,$8,$9*
0 Add four rect primitives between the rounded corners*
20,1,$1+$1,$2,$3,$4,$5,0*
20,1,$1+$1,$4,$5,$6,$7,0*
20,1,$1+$1,$6,$7,$8,$9,0*
20,1,$1+$1,$8,$9,$2,$3,0*%
G04 Aperture macros list end*
%ADD10R,1.600000X0.700000*%
%ADD11R,1.500000X1.200000*%
%ADD12R,2.200000X1.200000*%
%ADD13R,1.500000X1.600000*%
%ADD14RoundRect,0.135000X-0.135000X-0.185000X0.135000X-0.185000X0.135000X0.185000X-0.135000X0.185000X0*%
%ADD15R,3.000000X0.900000*%
%ADD16R,5.500000X2.050013*%
%ADD17RoundRect,0.140000X-0.140000X-0.170000X0.140000X-0.170000X0.140000X0.170000X-0.140000X0.170000X0*%
%ADD18RoundRect,0.150000X-0.150000X0.825000X-0.150000X-0.825000X0.150000X-0.825000X0.150000X0.825000X0*%
%ADD19RoundRect,0.135000X0.135000X0.185000X-0.135000X0.185000X-0.135000X-0.185000X0.135000X-0.185000X0*%
%ADD20RoundRect,0.150000X-0.150000X0.512500X-0.150000X-0.512500X0.150000X-0.512500X0.150000X0.512500X0*%
%ADD21RoundRect,0.140000X0.170000X-0.140000X0.170000X0.140000X-0.170000X0.140000X-0.170000X-0.140000X0*%
%ADD22RoundRect,0.250000X-0.650000X1.000000X-0.650000X-1.000000X0.650000X-1.000000X0.650000X1.000000X0*%
%ADD23RoundRect,0.225000X-0.250000X0.225000X-0.250000X-0.225000X0.250000X-0.225000X0.250000X0.225000X0*%
%ADD24RoundRect,0.150000X0.150000X-0.587500X0.150000X0.587500X-0.150000X0.587500X-0.150000X-0.587500X0*%
%ADD25RoundRect,0.150000X0.512500X0.150000X-0.512500X0.150000X-0.512500X-0.150000X0.512500X-0.150000X0*%
%ADD26RoundRect,0.135000X0.185000X-0.135000X0.185000X0.135000X-0.185000X0.135000X-0.185000X-0.135000X0*%
%ADD27RoundRect,0.140000X-0.170000X0.140000X-0.170000X-0.140000X0.170000X-0.140000X0.170000X0.140000X0*%
%ADD28RoundRect,0.218750X0.218750X0.256250X-0.218750X0.256250X-0.218750X-0.256250X0.218750X-0.256250X0*%
%ADD29RoundRect,0.135000X-0.185000X0.135000X-0.185000X-0.135000X0.185000X-0.135000X0.185000X0.135000X0*%
%ADD30RoundRect,0.140000X0.140000X0.170000X-0.140000X0.170000X-0.140000X-0.170000X0.140000X-0.170000X0*%
%ADD31RoundRect,0.200000X0.275000X-0.200000X0.275000X0.200000X-0.275000X0.200000X-0.275000X-0.200000X0*%
%ADD32RoundRect,0.150000X0.587500X0.150000X-0.587500X0.150000X-0.587500X-0.150000X0.587500X-0.150000X0*%
%ADD33RoundRect,0.225000X0.225000X0.250000X-0.225000X0.250000X-0.225000X-0.250000X0.225000X-0.250000X0*%
%ADD34RoundRect,0.062500X-0.675000X-0.062500X0.675000X-0.062500X0.675000X0.062500X-0.675000X0.062500X0*%
%ADD35RoundRect,0.062500X-0.062500X-0.675000X0.062500X-0.675000X0.062500X0.675000X-0.062500X0.675000X0*%
%ADD36RoundRect,0.381000X-0.762000X-0.381000X0.762000X-0.381000X0.762000X0.381000X-0.762000X0.381000X0*%
%ADD37RoundRect,0.225000X0.250000X-0.225000X0.250000X0.225000X-0.250000X0.225000X-0.250000X-0.225000X0*%
%ADD38RoundRect,0.218750X-0.218750X-0.256250X0.218750X-0.256250X0.218750X0.256250X-0.218750X0.256250X0*%
%ADD39RoundRect,0.225000X-0.225000X-0.250000X0.225000X-0.250000X0.225000X0.250000X-0.225000X0.250000X0*%
%ADD40RoundRect,0.175000X-0.175000X0.325000X-0.175000X-0.325000X0.175000X-0.325000X0.175000X0.325000X0*%
%ADD41RoundRect,0.242500X0.382500X-0.242500X0.382500X0.242500X-0.382500X0.242500X-0.382500X-0.242500X0*%
%ADD42RoundRect,0.150000X0.150000X-0.650000X0.150000X0.650000X-0.150000X0.650000X-0.150000X-0.650000X0*%
%ADD43RoundRect,0.200000X-0.275000X0.200000X-0.275000X-0.200000X0.275000X-0.200000X0.275000X0.200000X0*%
%ADD44RoundRect,0.147500X-0.147500X-0.172500X0.147500X-0.172500X0.147500X0.172500X-0.147500X0.172500X0*%
%ADD45R,0.500000X2.000000*%
%ADD46R,2.000000X1.700000*%
%ADD47RoundRect,0.112500X-0.187500X-0.112500X0.187500X-0.112500X0.187500X0.112500X-0.187500X0.112500X0*%
%ADD48R,1.200000X1.400000*%
%ADD49RoundRect,0.250000X-1.000000X-0.650000X1.000000X-0.650000X1.000000X0.650000X-1.000000X0.650000X0*%
%ADD50R,1.800000X0.800000*%
%ADD51RoundRect,0.250000X-0.425000X0.450000X-0.425000X-0.450000X0.425000X-0.450000X0.425000X0.450000X0*%
%ADD52RoundRect,0.147500X-0.172500X0.147500X-0.172500X-0.147500X0.172500X-0.147500X0.172500X0.147500X0*%
%ADD53R,1.000000X1.050013*%
%ADD54R,1.050013X2.200000*%
%ADD55R,1.300000X0.500000*%
%ADD56R,0.500000X1.300000*%
%ADD57R,0.600000X0.500000*%
%ADD58R,0.300000X0.750000*%
%ADD59RoundRect,0.250000X0.425000X-0.450000X0.425000X0.450000X-0.425000X0.450000X-0.425000X-0.450000X0*%
%ADD60R,1.000000X1.720015*%
%ADD61RoundRect,0.150000X-0.150000X0.650000X-0.150000X-0.650000X0.150000X-0.650000X0.150000X0.650000X0*%
%ADD62R,3.620015X2.424003*%
G04 APERTURE END LIST*
D10*
%TO.C,J203*%
X13263513Y37699873D03*
X13263513Y38799950D03*
X13263513Y39900026D03*
X13263513Y41000102D03*
X13263513Y42099924D03*
X13263513Y43200000D03*
X13263513Y44300077D03*
X13263513Y45399899D03*
X13263513Y46499975D03*
D11*
X12263513Y47700128D03*
D12*
X2663563Y47700128D03*
X2663563Y32200000D03*
D13*
X12263513Y33099924D03*
%TD*%
D14*
%TO.C,R203*%
X35569798Y32800000D03*
X36589796Y32800000D03*
%TD*%
D15*
%TO.C,J302*%
X32975005Y84400127D03*
X32975006Y86900000D03*
X32975006Y88900000D03*
X32975005Y91399873D03*
D16*
X36624994Y80874854D03*
X36624994Y94925146D03*
%TD*%
D17*
%TO.C,C202*%
X40399795Y32800000D03*
X41359795Y32800000D03*
%TD*%
D14*
%TO.C,R428*%
X31145232Y45687519D03*
X32165230Y45687519D03*
%TD*%
D18*
%TO.C,U405*%
X73505000Y24475000D03*
X72235000Y24475000D03*
X70965000Y24475000D03*
X69695000Y24475000D03*
X69695000Y19525000D03*
X70965000Y19525000D03*
X72235000Y19525000D03*
X73505000Y19525000D03*
%TD*%
D19*
%TO.C,R330*%
X7421872Y13600627D03*
X6401874Y13600627D03*
%TD*%
D20*
%TO.C,Q309*%
X41030998Y19675000D03*
X39131000Y19675000D03*
X40080999Y17400000D03*
%TD*%
D21*
%TO.C,C402*%
X33200000Y58120000D03*
X33200000Y59080000D03*
%TD*%
D22*
%TO.C,D304*%
X1200000Y9800002D03*
X1200000Y5800000D03*
%TD*%
D23*
%TO.C,C213*%
X57900000Y39550051D03*
X57900000Y38000051D03*
%TD*%
D24*
%TO.C,Q312*%
X16588756Y21862500D03*
X18488756Y21862500D03*
X17538756Y23737501D03*
%TD*%
D25*
%TO.C,U403*%
X30537728Y36137524D03*
X30537728Y37087523D03*
X30537728Y38037522D03*
X28262728Y38037522D03*
X28262728Y36137524D03*
%TD*%
D26*
%TO.C,R419*%
X31000228Y33587522D03*
X31000228Y34607520D03*
%TD*%
D19*
%TO.C,C218*%
X47959794Y42992051D03*
X46939796Y42992051D03*
%TD*%
D17*
%TO.C,C205*%
X46969795Y45400051D03*
X47929795Y45400051D03*
%TD*%
D26*
%TO.C,R214*%
X54279975Y40090052D03*
X54279975Y41110050D03*
%TD*%
D27*
%TO.C,C319*%
X45011998Y21730000D03*
X45011998Y20770000D03*
%TD*%
D28*
%TO.C,L403*%
X47625000Y55200000D03*
X46049998Y55200000D03*
%TD*%
D26*
%TO.C,R455*%
X39509999Y56080002D03*
X39509999Y57100000D03*
%TD*%
D19*
%TO.C,R331*%
X7421873Y18800628D03*
X6401875Y18800628D03*
%TD*%
D27*
%TO.C,C211*%
X59200000Y39825051D03*
X59200000Y38865051D03*
%TD*%
D17*
%TO.C,C305*%
X18120000Y68649337D03*
X19080000Y68649337D03*
%TD*%
D26*
%TO.C,R453*%
X43909999Y56080002D03*
X43909999Y57100000D03*
%TD*%
D19*
%TO.C,R220*%
X15983536Y37550064D03*
X14963538Y37550064D03*
%TD*%
%TO.C,R315*%
X19109999Y73049337D03*
X18090001Y73049337D03*
%TD*%
D29*
%TO.C,R401*%
X41200000Y77019998D03*
X41200000Y76000000D03*
%TD*%
%TO.C,R207*%
X60200000Y39855050D03*
X60200000Y38835052D03*
%TD*%
D14*
%TO.C,R202*%
X14963538Y42450064D03*
X15983536Y42450064D03*
%TD*%
D30*
%TO.C,C236*%
X54319975Y59300051D03*
X53359975Y59300051D03*
%TD*%
D17*
%TO.C,C201*%
X14993537Y41350064D03*
X15953537Y41350064D03*
%TD*%
D19*
%TO.C,R221*%
X15983536Y38820064D03*
X14963538Y38820064D03*
%TD*%
D31*
%TO.C,R311*%
X62800000Y19350000D03*
X62800000Y21000000D03*
%TD*%
D29*
%TO.C,R415*%
X25400228Y40709999D03*
X25400228Y39690001D03*
%TD*%
D23*
%TO.C,C416*%
X31800000Y62175000D03*
X31800000Y60625000D03*
%TD*%
D20*
%TO.C,U305*%
X48011996Y23207500D03*
X47061997Y23207500D03*
X46111998Y23207500D03*
X46111998Y20932500D03*
X48011996Y20932500D03*
%TD*%
D19*
%TO.C,R329*%
X7421873Y14650626D03*
X6401875Y14650626D03*
%TD*%
D27*
%TO.C,C413*%
X28754228Y34577521D03*
X28754228Y33617521D03*
%TD*%
D19*
%TO.C,R204*%
X15983536Y46750064D03*
X14963538Y46750064D03*
%TD*%
D27*
%TO.C,C321*%
X51013000Y21730000D03*
X51013000Y20770000D03*
%TD*%
D20*
%TO.C,U303*%
X21549999Y84737500D03*
X20600000Y84737500D03*
X19650001Y84737500D03*
X19650001Y82462500D03*
X20600000Y82462500D03*
X21549999Y82462500D03*
%TD*%
D32*
%TO.C,Q302*%
X14155003Y17850000D03*
X14155003Y19750000D03*
X12280002Y18800000D03*
%TD*%
D33*
%TO.C,C308*%
X2575000Y69649337D03*
X1025000Y69649337D03*
%TD*%
D21*
%TO.C,C215*%
X60149819Y60900052D03*
X60149819Y61860052D03*
%TD*%
D34*
%TO.C,U201*%
X53037500Y56400000D03*
X53037500Y56000000D03*
X53037500Y55600000D03*
X53037500Y55200000D03*
X53037500Y54800000D03*
X53037500Y54400000D03*
X53037500Y54000000D03*
X53037500Y53600000D03*
X53037500Y53200000D03*
X53037500Y52800000D03*
X53037500Y52400000D03*
X53037500Y52000000D03*
X53037500Y51600000D03*
X53037500Y51200000D03*
X53037500Y50800000D03*
X53037500Y50400000D03*
X53037500Y50000000D03*
X53037500Y49600000D03*
X53037500Y49200000D03*
X53037500Y48800000D03*
X53037500Y48400000D03*
X53037500Y48000000D03*
X53037500Y47600000D03*
X53037500Y47200000D03*
X53037500Y46800000D03*
X53037500Y46400000D03*
X53037500Y46000000D03*
X53037500Y45600000D03*
X53037500Y45200000D03*
X53037500Y44800000D03*
X53037500Y44400000D03*
X53037500Y44000000D03*
D35*
X54500000Y42537500D03*
X54900000Y42537500D03*
X55300000Y42537500D03*
X55700000Y42537500D03*
X56100000Y42537500D03*
X56500000Y42537500D03*
X56900000Y42537500D03*
X57300000Y42537500D03*
X57700000Y42537500D03*
X58100000Y42537500D03*
X58500000Y42537500D03*
X58900000Y42537500D03*
X59300000Y42537500D03*
X59700000Y42537500D03*
X60100000Y42537500D03*
X60500000Y42537500D03*
X60900000Y42537500D03*
X61300000Y42537500D03*
X61700000Y42537500D03*
X62100000Y42537500D03*
X62500000Y42537500D03*
X62900000Y42537500D03*
X63300000Y42537500D03*
X63700000Y42537500D03*
X64100000Y42537500D03*
X64500000Y42537500D03*
X64900000Y42537500D03*
X65300000Y42537500D03*
X65700000Y42537500D03*
X66100000Y42537500D03*
X66500000Y42537500D03*
X66900000Y42537500D03*
D34*
X68362500Y44000000D03*
X68362500Y44400000D03*
X68362500Y44800000D03*
X68362500Y45200000D03*
X68362500Y45600000D03*
X68362500Y46000000D03*
X68362500Y46400000D03*
X68362500Y46800000D03*
X68362500Y47200000D03*
X68362500Y47600000D03*
X68362500Y48000000D03*
X68362500Y48400000D03*
X68362500Y48800000D03*
X68362500Y49200000D03*
X68362500Y49600000D03*
X68362500Y50000000D03*
X68362500Y50400000D03*
X68362500Y50800000D03*
X68362500Y51200000D03*
X68362500Y51600000D03*
X68362500Y52000000D03*
X68362500Y52400000D03*
X68362500Y52800000D03*
X68362500Y53200000D03*
X68362500Y53600000D03*
X68362500Y54000000D03*
X68362500Y54400000D03*
X68362500Y54800000D03*
X68362500Y55200000D03*
X68362500Y55600000D03*
X68362500Y56000000D03*
X68362500Y56400000D03*
D35*
X66900000Y57862500D03*
X66500000Y57862500D03*
X66100000Y57862500D03*
X65700000Y57862500D03*
X65300000Y57862500D03*
X64900000Y57862500D03*
X64500000Y57862500D03*
X64100000Y57862500D03*
X63700000Y57862500D03*
X63300000Y57862500D03*
X62900000Y57862500D03*
X62500000Y57862500D03*
X62100000Y57862500D03*
X61700000Y57862500D03*
X61300000Y57862500D03*
X60900000Y57862500D03*
X60500000Y57862500D03*
X60100000Y57862500D03*
X59700000Y57862500D03*
X59300000Y57862500D03*
X58900000Y57862500D03*
X58500000Y57862500D03*
X58100000Y57862500D03*
X57700000Y57862500D03*
X57300000Y57862500D03*
X56900000Y57862500D03*
X56500000Y57862500D03*
X56100000Y57862500D03*
X55700000Y57862500D03*
X55300000Y57862500D03*
X54900000Y57862500D03*
X54500000Y57862500D03*
D36*
X60700000Y50200000D03*
%TD*%
D31*
%TO.C,R307*%
X66060000Y19350000D03*
X66060000Y21000000D03*
%TD*%
D29*
%TO.C,R436*%
X38980999Y23717499D03*
X38980999Y22697501D03*
%TD*%
D26*
%TO.C,R418*%
X29872228Y33587522D03*
X29872228Y34607520D03*
%TD*%
%TO.C,R411*%
X51013000Y22697501D03*
X51013000Y23717499D03*
%TD*%
D37*
%TO.C,C316*%
X55800000Y21925000D03*
X55800000Y23475000D03*
%TD*%
D23*
%TO.C,C409*%
X26400228Y37887522D03*
X26400228Y36337522D03*
%TD*%
D38*
%TO.C,FB302*%
X1012499Y76249337D03*
X2587501Y76249337D03*
%TD*%
D19*
%TO.C,R216*%
X71849793Y54200000D03*
X70829795Y54200000D03*
%TD*%
D21*
%TO.C,C405*%
X27636228Y39720000D03*
X27636228Y40680000D03*
%TD*%
D39*
%TO.C,C415*%
X46050000Y56800000D03*
X47600000Y56800000D03*
%TD*%
D37*
%TO.C,C429*%
X49225000Y55225000D03*
X49225000Y56775000D03*
%TD*%
D19*
%TO.C,R320*%
X16700000Y17900001D03*
X15680002Y17900001D03*
%TD*%
D14*
%TO.C,R460*%
X32190001Y64325000D03*
X33209999Y64325000D03*
%TD*%
D40*
%TO.C,Q304*%
X11430002Y17600002D03*
X9530002Y17600002D03*
X10480002Y15200001D03*
%TD*%
D41*
%TO.C,U301*%
X13625000Y70849337D03*
X15175000Y70849337D03*
X13625000Y72049337D03*
X15175000Y72049337D03*
D42*
X12495001Y68799337D03*
X13765000Y68799337D03*
X15035000Y68799337D03*
X16304999Y68799337D03*
X16304999Y74099337D03*
X15035000Y74099337D03*
X13765000Y74099337D03*
X12495001Y74099337D03*
%TD*%
D19*
%TO.C,R333*%
X1521873Y18800628D03*
X501875Y18800628D03*
%TD*%
D29*
%TO.C,R446*%
X13100000Y27692497D03*
X13100000Y26672499D03*
%TD*%
D23*
%TO.C,C228*%
X60850025Y36500051D03*
X60850025Y34950051D03*
%TD*%
D19*
%TO.C,R328*%
X2621872Y13500628D03*
X1601874Y13500628D03*
%TD*%
D40*
%TO.C,Q307*%
X29884593Y92800001D03*
X27984593Y92800001D03*
X28934593Y90400000D03*
%TD*%
D17*
%TO.C,C212*%
X70849795Y51000000D03*
X71809795Y51000000D03*
%TD*%
D29*
%TO.C,R301*%
X42330999Y19179999D03*
X42330999Y18160001D03*
%TD*%
D14*
%TO.C,R217*%
X46939796Y37700051D03*
X47959794Y37700051D03*
%TD*%
D23*
%TO.C,C408*%
X24800228Y37887522D03*
X24800228Y36337522D03*
%TD*%
D43*
%TO.C,R312*%
X64430000Y21000000D03*
X64430000Y19350000D03*
%TD*%
D29*
%TO.C,R327*%
X18488756Y27692497D03*
X18488756Y26672499D03*
%TD*%
D44*
%TO.C,D409*%
X33315000Y45638850D03*
X34285000Y45638850D03*
%TD*%
D45*
%TO.C,J404*%
X21800000Y87400000D03*
X21000000Y87400000D03*
X20200000Y87400000D03*
X19400000Y87400000D03*
X18600000Y87400000D03*
D46*
X24650000Y87500000D03*
X24650000Y92950000D03*
X15750000Y87500000D03*
X15750000Y92950000D03*
%TD*%
D47*
%TO.C,D405*%
X900000Y80400000D03*
X3000000Y80400000D03*
%TD*%
D39*
%TO.C,C303*%
X13800000Y63049337D03*
X15350000Y63049337D03*
%TD*%
D21*
%TO.C,C204*%
X44529795Y46900051D03*
X44529795Y47860051D03*
%TD*%
D48*
%TO.C,Y201*%
X41379795Y47700051D03*
X41379795Y45500051D03*
X43079795Y45500051D03*
X43079795Y47700051D03*
%TD*%
D19*
%TO.C,R201*%
X15983536Y45400064D03*
X14963538Y45400064D03*
%TD*%
D29*
%TO.C,R435*%
X45011998Y23717499D03*
X45011998Y22697501D03*
%TD*%
D26*
%TO.C,R454*%
X38409999Y56080002D03*
X38409999Y57100000D03*
%TD*%
D19*
%TO.C,R322*%
X10790001Y18900001D03*
X9770003Y18900001D03*
%TD*%
D14*
%TO.C,R323*%
X8880002Y13600000D03*
X9900000Y13600000D03*
%TD*%
D27*
%TO.C,C323*%
X21250001Y21692500D03*
X21250001Y20732500D03*
%TD*%
D24*
%TO.C,Q308*%
X13100000Y21862500D03*
X15000000Y21862500D03*
X14050000Y23737501D03*
%TD*%
D48*
%TO.C,Y401*%
X30080000Y58800000D03*
X30080000Y56600000D03*
X31780000Y56600000D03*
X31780000Y58800000D03*
%TD*%
D19*
%TO.C,R222*%
X15983536Y40050064D03*
X14963538Y40050064D03*
%TD*%
D49*
%TO.C,D305*%
X5799998Y10900000D03*
X9800000Y10900000D03*
%TD*%
D26*
%TO.C,R452*%
X42809999Y56080002D03*
X42809999Y57100000D03*
%TD*%
D43*
%TO.C,R308*%
X67690001Y21000000D03*
X67690001Y19350000D03*
%TD*%
D50*
%TO.C,K301*%
X4077500Y7450000D03*
X4077500Y4250000D03*
X4077500Y2050000D03*
X4077500Y-150000D03*
X11077500Y-150000D03*
X11077500Y2050000D03*
X11077500Y4250000D03*
X11077500Y7450000D03*
%TD*%
D14*
%TO.C,R206*%
X39129796Y43705051D03*
X40149794Y43705051D03*
%TD*%
D51*
%TO.C,C314*%
X6799999Y67700000D03*
X6799999Y65000000D03*
%TD*%
D27*
%TO.C,C235*%
X62400000Y39825051D03*
X62400000Y38865051D03*
%TD*%
D26*
%TO.C,R461*%
X30600000Y61335002D03*
X30600000Y62355000D03*
%TD*%
D27*
%TO.C,C231*%
X61400000Y39825051D03*
X61400000Y38865051D03*
%TD*%
D52*
%TO.C,L405*%
X33200000Y70000000D03*
X33200000Y69030000D03*
%TD*%
D19*
%TO.C,C219*%
X47959794Y41990051D03*
X46939796Y41990051D03*
%TD*%
D14*
%TO.C,C301*%
X16000000Y67249338D03*
X17019998Y67249338D03*
%TD*%
D19*
%TO.C,R210*%
X47959794Y40988051D03*
X46939796Y40988051D03*
%TD*%
D20*
%TO.C,Q311*%
X53062999Y19675000D03*
X51163001Y19675000D03*
X52113000Y17400000D03*
%TD*%
D14*
%TO.C,R313*%
X18090001Y71849337D03*
X19109999Y71849337D03*
%TD*%
D32*
%TO.C,Q305*%
X4975001Y13650000D03*
X4975001Y15550000D03*
X3100000Y14600000D03*
%TD*%
D27*
%TO.C,C414*%
X33200000Y57070001D03*
X33200000Y56110001D03*
%TD*%
D21*
%TO.C,C304*%
X11000000Y68279337D03*
X11000000Y69239337D03*
%TD*%
D33*
%TO.C,C412*%
X33950000Y34500000D03*
X32400000Y34500000D03*
%TD*%
D26*
%TO.C,R404*%
X37800000Y76000000D03*
X37800000Y77019998D03*
%TD*%
D29*
%TO.C,R417*%
X25400228Y34607520D03*
X25400228Y33587522D03*
%TD*%
D20*
%TO.C,U304*%
X41980997Y23207500D03*
X41030998Y23207500D03*
X40080999Y23207500D03*
X40080999Y20932500D03*
X41980997Y20932500D03*
%TD*%
D19*
%TO.C,C217*%
X47959794Y44000051D03*
X46939796Y44000051D03*
%TD*%
D20*
%TO.C,Q320*%
X29094000Y19675000D03*
X27194002Y19675000D03*
X28144001Y17400000D03*
%TD*%
%TO.C,U306*%
X54012998Y23207500D03*
X53062999Y23207500D03*
X52113000Y23207500D03*
X52113000Y20932500D03*
X54012998Y20932500D03*
%TD*%
D17*
%TO.C,C222*%
X70849795Y49100051D03*
X71809795Y49100051D03*
%TD*%
D14*
%TO.C,R303*%
X29535001Y94200000D03*
X30554999Y94200000D03*
%TD*%
D53*
%TO.C,ANT401*%
X33200000Y72637490D03*
D54*
X34674981Y74162510D03*
X31725019Y74162510D03*
%TD*%
D33*
%TO.C,C407*%
X33950000Y40857501D03*
X32400000Y40857501D03*
%TD*%
D19*
%TO.C,R457*%
X49509999Y60725000D03*
X48490001Y60725000D03*
%TD*%
D20*
%TO.C,Q310*%
X47061997Y19675000D03*
X45161999Y19675000D03*
X46111998Y17400000D03*
%TD*%
D55*
%TO.C,U401*%
X35697170Y68825000D03*
X35697170Y67925000D03*
X35697170Y67025000D03*
X35697170Y66125000D03*
X35697170Y65225000D03*
X35697170Y64325000D03*
X35697170Y63425000D03*
X35697170Y62525000D03*
X35697170Y61625000D03*
X35697170Y60725000D03*
X35697170Y59825000D03*
D56*
X36972170Y58550000D03*
X37872170Y58550000D03*
X38772170Y58550000D03*
X39672170Y58550000D03*
X40572170Y58550000D03*
X41472170Y58550000D03*
X42372170Y58550000D03*
X43272170Y58550000D03*
X44172170Y58550000D03*
X45072170Y58550000D03*
X45972170Y58550000D03*
D55*
X47247170Y59825000D03*
X47247170Y60725000D03*
X47247170Y61625000D03*
X47247170Y62525000D03*
X47247170Y63425000D03*
X47247170Y64325000D03*
X47247170Y65225000D03*
X47247170Y66125000D03*
X47247170Y67025000D03*
X47247170Y67925000D03*
X47247170Y68825000D03*
D56*
X45972170Y70100000D03*
X45072170Y70100000D03*
X44172170Y70100000D03*
X43272170Y70100000D03*
X42372170Y70100000D03*
X41472170Y70100000D03*
X40572170Y70100000D03*
X39672170Y70100000D03*
X38772170Y70100000D03*
X37872170Y70100000D03*
X36972170Y70100000D03*
%TD*%
D23*
%TO.C,C404*%
X26400228Y44087519D03*
X26400228Y42537519D03*
%TD*%
D30*
%TO.C,C232*%
X47929795Y48140000D03*
X46969795Y48140000D03*
%TD*%
D14*
%TO.C,R309*%
X18090001Y67249337D03*
X19109999Y67249337D03*
%TD*%
D33*
%TO.C,C309*%
X2575000Y71249337D03*
X1025000Y71249337D03*
%TD*%
D27*
%TO.C,C325*%
X27044001Y21730000D03*
X27044001Y20770000D03*
%TD*%
D29*
%TO.C,R213*%
X55500000Y41110050D03*
X55500000Y40090052D03*
%TD*%
%TO.C,R402*%
X40066666Y77019998D03*
X40066666Y76000000D03*
%TD*%
%TO.C,R403*%
X38933333Y77019998D03*
X38933333Y76000000D03*
%TD*%
D19*
%TO.C,R310*%
X19109999Y66049337D03*
X18090001Y66049337D03*
%TD*%
D26*
%TO.C,R430*%
X32800000Y22697501D03*
X32800000Y23717499D03*
%TD*%
D20*
%TO.C,Q319*%
X23300000Y19637500D03*
X21400002Y19637500D03*
X22350001Y17362500D03*
%TD*%
%TO.C,U307*%
X24249999Y23170000D03*
X23300000Y23170000D03*
X22350001Y23170000D03*
X22350001Y20895000D03*
X24249999Y20895000D03*
%TD*%
D26*
%TO.C,R205*%
X45849795Y44380053D03*
X45849795Y45400051D03*
%TD*%
D23*
%TO.C,C311*%
X-600000Y74500000D03*
X-600000Y72950000D03*
%TD*%
D19*
%TO.C,R324*%
X11890001Y13600001D03*
X10870003Y13600001D03*
%TD*%
D57*
%TO.C,U203*%
X43354795Y41975000D03*
X42604795Y41975000D03*
X43354795Y41325000D03*
X42604795Y41325000D03*
D58*
X43729795Y43100000D03*
X43229795Y43100000D03*
X42729795Y43100000D03*
X42229795Y43100000D03*
X42229795Y40200000D03*
X42729795Y40200000D03*
X43229795Y40200000D03*
X43729795Y40200000D03*
%TD*%
D59*
%TO.C,C315*%
X13465910Y-143410D03*
X13465910Y2556590D03*
%TD*%
D19*
%TO.C,R211*%
X54329975Y39100051D03*
X53309977Y39100051D03*
%TD*%
D26*
%TO.C,R414*%
X26518228Y39690001D03*
X26518228Y40709999D03*
%TD*%
D49*
%TO.C,D306*%
X13445001Y77040017D03*
X17445003Y77040017D03*
%TD*%
D44*
%TO.C,D408*%
X33315000Y46751331D03*
X34285000Y46751331D03*
%TD*%
D14*
%TO.C,C233*%
X70829795Y53100051D03*
X71849793Y53100051D03*
%TD*%
D27*
%TO.C,C327*%
X32800000Y21730000D03*
X32800000Y20770000D03*
%TD*%
D23*
%TO.C,C403*%
X24800228Y44087519D03*
X24800228Y42537519D03*
%TD*%
D25*
%TO.C,U402*%
X30537728Y42337520D03*
X30537728Y43287519D03*
X30537728Y44237518D03*
X28262728Y44237518D03*
X28262728Y42337520D03*
%TD*%
D26*
%TO.C,R434*%
X27044001Y22697501D03*
X27044001Y23717499D03*
%TD*%
D40*
%TO.C,Q301*%
X2161873Y17400628D03*
X261873Y17400628D03*
X1211873Y15000627D03*
%TD*%
D29*
%TO.C,R317*%
X24600000Y19052498D03*
X24600000Y18032500D03*
%TD*%
D37*
%TO.C,C312*%
X23100000Y82225000D03*
X23100000Y83775000D03*
%TD*%
D26*
%TO.C,R408*%
X21250001Y22660001D03*
X21250001Y23679999D03*
%TD*%
D17*
%TO.C,C220*%
X69829795Y43600051D03*
X70789795Y43600051D03*
%TD*%
D14*
%TO.C,C230*%
X46939796Y39986051D03*
X47959794Y39986051D03*
%TD*%
D27*
%TO.C,C203*%
X44529795Y46000051D03*
X44529795Y45040051D03*
%TD*%
D60*
%TO.C,L401*%
X32200228Y43887522D03*
X33900000Y43887522D03*
%TD*%
D29*
%TO.C,R223*%
X58500000Y65409999D03*
X58500000Y64390001D03*
%TD*%
D17*
%TO.C,C426*%
X71120000Y26400000D03*
X72080000Y26400000D03*
%TD*%
D39*
%TO.C,C302*%
X13800000Y64649337D03*
X15350000Y64649337D03*
%TD*%
D61*
%TO.C,U202*%
X40399795Y42000051D03*
X39129795Y42000051D03*
X37859795Y42000051D03*
X36589795Y42000051D03*
X36589795Y34800051D03*
X37859795Y34800051D03*
X39129795Y34800051D03*
X40399795Y34800051D03*
%TD*%
D32*
%TO.C,Q306*%
X4886874Y17750628D03*
X4886874Y19650628D03*
X3011873Y18700628D03*
%TD*%
D14*
%TO.C,R427*%
X31145231Y46800000D03*
X32165231Y46800000D03*
%TD*%
D62*
%TO.C,L301*%
X8000000Y76728016D03*
X8000000Y70471984D03*
%TD*%
D19*
%TO.C,R314*%
X19109999Y74249337D03*
X18090001Y74249337D03*
%TD*%
D38*
%TO.C,FB403*%
X1012499Y78600000D03*
X2587501Y78600000D03*
%TD*%
D33*
%TO.C,C237*%
X54149975Y60652536D03*
X52599975Y60652536D03*
%TD*%
D14*
%TO.C,R304*%
X13890001Y67249337D03*
X14909999Y67249337D03*
%TD*%
%TO.C,R458*%
X48490001Y59600000D03*
X49509999Y59600000D03*
%TD*%
D19*
%TO.C,R321*%
X16709999Y16800001D03*
X15690001Y16800001D03*
%TD*%
D27*
%TO.C,C306*%
X19080000Y70729337D03*
X19080000Y69769337D03*
%TD*%
D19*
%TO.C,R334*%
X28464998Y94200000D03*
X27445000Y94200000D03*
%TD*%
D37*
%TO.C,C318*%
X19925000Y21925000D03*
X19925000Y23475000D03*
%TD*%
D29*
%TO.C,R326*%
X15794378Y27692497D03*
X15794378Y26672499D03*
%TD*%
D17*
%TO.C,C221*%
X69849795Y44609950D03*
X70809795Y44609950D03*
%TD*%
D26*
%TO.C,R450*%
X36700000Y56080002D03*
X36700000Y57100000D03*
%TD*%
D27*
%TO.C,C317*%
X38980999Y21730000D03*
X38980999Y20770000D03*
%TD*%
D26*
%TO.C,R451*%
X40609999Y56080002D03*
X40609999Y57100000D03*
%TD*%
D32*
%TO.C,Q303*%
X14155003Y13650001D03*
X14155003Y15550001D03*
X12280002Y14600001D03*
%TD*%
D17*
%TO.C,C227*%
X53339976Y38000051D03*
X54299976Y38000051D03*
%TD*%
D26*
%TO.C,R416*%
X26518228Y33587522D03*
X26518228Y34607520D03*
%TD*%
D60*
%TO.C,L402*%
X32200228Y37687522D03*
X33900000Y37687522D03*
%TD*%
D19*
%TO.C,R332*%
X7421872Y17700628D03*
X6401874Y17700628D03*
%TD*%
D51*
%TO.C,C313*%
X9000000Y67700000D03*
X9000000Y65000000D03*
%TD*%
D29*
%TO.C,R302*%
X48361998Y19179999D03*
X48361998Y18160001D03*
%TD*%
D14*
%TO.C,R306*%
X-398125Y13500628D03*
X621873Y13500628D03*
%TD*%
D20*
%TO.C,U308*%
X30043999Y23207500D03*
X29094000Y23207500D03*
X28144001Y23207500D03*
X28144001Y20932500D03*
X30043999Y20932500D03*
%TD*%
D14*
%TO.C,R218*%
X46939796Y38950000D03*
X47959794Y38950000D03*
%TD*%
%TO.C,R305*%
X15999999Y66049337D03*
X17019997Y66049337D03*
%TD*%
D20*
%TO.C,Q321*%
X34849999Y19675000D03*
X32950001Y19675000D03*
X33900000Y17400000D03*
%TD*%
D28*
%TO.C,L302*%
X2562501Y74449337D03*
X987499Y74449337D03*
%TD*%
D29*
%TO.C,R456*%
X42400000Y77019998D03*
X42400000Y76000000D03*
%TD*%
D19*
%TO.C,C428*%
X33200000Y71005001D03*
X32180002Y71005001D03*
%TD*%
D29*
%TO.C,R319*%
X36350001Y19179999D03*
X36350001Y18160001D03*
%TD*%
D19*
%TO.C,C427*%
X33200000Y67925000D03*
X32180002Y67925000D03*
%TD*%
D14*
%TO.C,R325*%
X13100000Y25672499D03*
X14119998Y25672499D03*
%TD*%
D21*
%TO.C,C234*%
X44804795Y40105000D03*
X44804795Y41065000D03*
%TD*%
D19*
%TO.C,R219*%
X15983536Y44050064D03*
X14963538Y44050064D03*
%TD*%
D30*
%TO.C,C406*%
X34120000Y42087519D03*
X33160000Y42087519D03*
%TD*%
D20*
%TO.C,U309*%
X35999999Y23207500D03*
X35050000Y23207500D03*
X34100001Y23207500D03*
X34100001Y20932500D03*
X35999999Y20932500D03*
%TD*%
D33*
%TO.C,C310*%
X2574999Y72849337D03*
X1024999Y72849337D03*
%TD*%
D25*
%TO.C,U302*%
X30136244Y86950001D03*
X30136244Y87900000D03*
X30136244Y88849999D03*
X27861244Y88849999D03*
X27861244Y87900000D03*
X27861244Y86950001D03*
%TD*%
D30*
%TO.C,C411*%
X34120000Y35887522D03*
X33160000Y35887522D03*
%TD*%
D29*
%TO.C,R316*%
X54363000Y19179999D03*
X54363000Y18160001D03*
%TD*%
D21*
%TO.C,C214*%
X59129795Y60900051D03*
X59129795Y61860051D03*
%TD*%
D29*
%TO.C,R318*%
X30394001Y19179999D03*
X30394001Y18160001D03*
%TD*%
D27*
%TO.C,C229*%
X62150025Y36775051D03*
X62150025Y35815051D03*
%TD*%
D21*
%TO.C,C410*%
X27636228Y33617521D03*
X27636228Y34577521D03*
%TD*%
M02*
